<svg width="37" height="auto" viewBox="0 0 41 30" fill="none" xmlns="http://www.w3.org/2000/svg">
<path d="M20.3547 19.8373C19.3484 19.8373 18.3647 19.5389 17.528 18.9798C16.6913 18.4208 16.0392 17.6261 15.6541 16.6965C15.269 15.7668 15.1683 14.7438 15.3646 13.7568C15.5609 12.7699 16.0455 11.8633 16.757 11.1518C17.4686 10.4402 18.3751 9.95565 19.3621 9.75933C20.349 9.56302 21.372 9.66377 22.3017 10.0489C23.2314 10.4339 24.026 11.0861 24.5851 11.9228C25.1441 12.7595 25.4425 13.7431 25.4425 14.7494C25.4425 16.0988 24.9065 17.3929 23.9523 18.3471C22.9982 19.3012 21.7041 19.8373 20.3547 19.8373ZM20.3547 12.2055C19.8515 12.2055 19.3597 12.3547 18.9414 12.6342C18.523 12.9138 18.1969 13.3111 18.0044 13.7759C17.8119 14.2407 17.7615 14.7522 17.8596 15.2457C17.9578 15.7392 18.2001 16.1925 18.5559 16.5482C18.9116 16.904 19.3649 17.1463 19.8584 17.2445C20.3519 17.3426 20.8634 17.2922 21.3282 17.0997C21.793 16.9072 22.1904 16.5811 22.4699 16.1627C22.7494 15.7444 22.8986 15.2526 22.8986 14.7494C22.8986 14.0747 22.6306 13.4277 22.1535 12.9506C21.6764 12.4735 21.0294 12.2055 20.3547 12.2055ZM34.7533 29.148C38.567 25.3318 40.7094 20.1574 40.7094 14.7621C40.7094 9.36692 38.567 4.19249 34.7533 0.376244C34.6351 0.257025 34.4944 0.162399 34.3394 0.0978227C34.1844 0.0332469 34.0181 0 33.8502 0C33.6823 0 33.516 0.0332469 33.361 0.0978227C33.206 0.162399 33.0654 0.257025 32.9471 0.376244C32.8254 0.490441 32.7285 0.628366 32.6622 0.781505C32.5959 0.934644 32.5617 1.09975 32.5617 1.26662C32.5617 1.43349 32.5959 1.59859 32.6622 1.75173C32.7285 1.90487 32.8254 2.04279 32.9471 2.15699C34.6009 3.81059 35.9127 5.77375 36.8078 7.93437C37.7028 10.095 38.1634 12.4108 38.1634 14.7494C38.1634 17.0881 37.7028 19.4038 36.8078 21.5645C35.9127 23.7251 34.6009 25.6882 32.9471 27.3418C32.8279 27.4601 32.7333 27.6008 32.6687 27.7558C32.6041 27.9108 32.5709 28.077 32.5709 28.2449C32.5709 28.4129 32.6041 28.5791 32.6687 28.7341C32.7333 28.8891 32.8279 29.0298 32.9471 29.148C33.0625 29.2678 33.2008 29.3633 33.3537 29.4289C33.5066 29.4944 33.6711 29.5287 33.8375 29.5296C34.1813 29.5288 34.5106 29.3915 34.7533 29.148ZM29.3602 23.7549C31.7447 21.3696 33.0843 18.1349 33.0843 14.7621C33.0843 11.3893 31.7447 8.15465 29.3602 5.76936C29.2419 5.65015 29.1013 5.55552 28.9463 5.49094C28.7913 5.42637 28.625 5.39312 28.4571 5.39312C28.2892 5.39312 28.1229 5.42637 27.9679 5.49094C27.8129 5.55552 27.6722 5.65015 27.554 5.76936C27.4323 5.88356 27.3353 6.02149 27.269 6.17463C27.2027 6.32776 27.1685 6.49287 27.1685 6.65974C27.1685 6.82661 27.2027 6.99171 27.269 7.14485C27.3353 7.29799 27.4323 7.43591 27.554 7.55011C28.5001 8.49516 29.2506 9.61742 29.7627 10.8527C30.2748 12.088 30.5384 13.4122 30.5384 14.7494C30.5384 16.0867 30.2748 17.4108 29.7627 18.6461C29.2506 19.8814 28.5001 21.0037 27.554 21.9487C27.4348 22.067 27.3401 22.2077 27.2756 22.3627C27.211 22.5177 27.1777 22.6839 27.1777 22.8518C27.1777 23.0197 27.211 23.186 27.2756 23.341C27.3401 23.496 27.4348 23.6367 27.554 23.7549C27.6694 23.8747 27.8077 23.9702 27.9606 24.0357C28.1135 24.1013 28.278 24.1355 28.4444 24.1365C28.7881 24.1357 29.1175 23.9984 29.3602 23.7549ZM13.1554 23.7549C13.2746 23.6367 13.3692 23.496 13.4338 23.341C13.4984 23.186 13.5316 23.0197 13.5316 22.8518C13.5316 22.6839 13.4984 22.5177 13.4338 22.3627C13.3692 22.2077 13.2746 22.067 13.1554 21.9487C11.2679 20.0433 10.209 17.4696 10.209 14.7876C10.209 12.1055 11.2679 9.5319 13.1554 7.62643C13.2771 7.51223 13.374 7.37431 13.4403 7.22117C13.5066 7.06803 13.5408 6.90293 13.5408 6.73606C13.5408 6.56918 13.5066 6.40408 13.4403 6.25094C13.374 6.0978 13.2771 5.95988 13.1554 5.84568C13.0371 5.72646 12.8965 5.63184 12.7415 5.56726C12.5865 5.50269 12.4202 5.46944 12.2523 5.46944C12.0844 5.46944 11.9181 5.50269 11.7631 5.56726C11.6081 5.63184 11.4674 5.72646 11.3492 5.84568C8.96463 8.23096 7.62506 11.4657 7.62506 14.8385C7.62506 18.2112 8.96463 21.4459 11.3492 23.8312C11.5919 24.0747 11.9212 24.212 12.265 24.2128C12.437 24.2022 12.6049 24.156 12.7582 24.0772C12.9114 23.9984 13.0467 23.8886 13.1554 23.7549ZM7.76226 29.148C7.88148 29.0298 7.9761 28.8891 8.04068 28.7341C8.10526 28.5791 8.1385 28.4129 8.1385 28.2449C8.1385 28.077 8.10526 27.9108 8.04068 27.7558C7.9761 27.6008 7.88148 27.4601 7.76226 27.3418C6.10849 25.6882 4.79664 23.7251 3.90161 21.5645C3.00659 19.4038 2.54593 17.0881 2.54593 14.7494C2.54593 12.4108 3.00659 10.095 3.90161 7.93437C4.79664 5.77375 6.10849 3.81059 7.76226 2.15699C7.88394 2.04279 7.98092 1.90487 8.04721 1.75173C8.11351 1.59859 8.14771 1.43349 8.14771 1.26662C8.14771 1.09975 8.11351 0.934644 8.04721 0.781505C7.98092 0.628366 7.88394 0.490441 7.76226 0.376244C7.64401 0.257025 7.50333 0.162399 7.34833 0.0978227C7.19333 0.0332469 7.02708 0 6.85916 0C6.69125 0 6.525 0.0332469 6.37 0.0978227C6.215 0.162399 6.07432 0.257025 5.95607 0.376244C2.14233 4.19249 0 9.36692 0 14.7621C0 20.1574 2.14233 25.3318 5.95607 29.148C6.19873 29.3915 6.52811 29.5288 6.87188 29.5296C7.03825 29.5287 7.20274 29.4944 7.35565 29.4289C7.50857 29.3633 7.64682 29.2678 7.76226 29.148Z" fill="#FF0000"/>
</svg>
