<svg width="27" height="12" viewBox="0 0 27 12" fill="none" xmlns="http://www.w3.org/2000/svg">
<path d="M7.93096 8.21042L7.96494 7.46278C7.96494 7.46278 8.04572 5.68566 13.2404 5.92177C18.435 6.15788 18.3542 7.935 18.3542 7.935L18.3328 8.4059C18.2801 9.56575 19.1738 10.5941 20.4356 10.8256L23.0168 11.2991C24.5785 11.5856 26.0434 10.5509 26.1086 9.11527L26.2257 6.53872C26.2581 5.82685 26.0512 5.11614 25.4941 4.60693C24.0689 3.30421 20.5225 0.910254 13.4827 0.590277C6.01723 0.250951 2.22415 3.2171 0.859732 4.6209C0.428158 5.0649 0.239641 5.64219 0.212692 6.23509L0.106698 8.56703C0.0351507 10.1411 1.66646 11.3451 3.35515 10.9644L5.98478 10.3717C7.09359 10.1217 7.88398 9.24402 7.93096 8.21042Z" fill="#FF1515"/>
</svg>
