<svg width="44" height="auto" viewBox="0 0 52 60" fill="none" xmlns="http://www.w3.org/2000/svg">
    <path d="M41.015 0H10.0245C4.49695 0 0 4.49695 0 10.0243V35.3292C0 40.8566 4.49695 45.3536 10.0243 45.3536H15.2108L14.1881 57.4908C14.0177 59.5145 16.3416 60.7346 17.9141 59.5105L36.1023 45.3537H41.0148C46.5422 45.3537 51.0391 40.8567 51.0391 35.3293V10.0243C51.0394 4.49695 46.5424 0 41.015 0ZM33.7414 24.6802L19.6112 32.8382C18.0735 33.7262 16.1413 32.6142 16.1413 30.8348V14.5188C16.1413 12.7387 18.0725 11.6269 19.6112 12.5155L33.7414 20.6735C35.2827 21.5633 35.2805 23.7916 33.7414 24.6802Z" fill="#6B3BFB"/>
</svg>
