<svg width="23" height="21" viewBox="0 0 23 21" fill="none" xmlns="http://www.w3.org/2000/svg">
    <path d="M10.948 10.5031H3.34874M3.13334 11.4861L1.87784 15.1867C1.19021 17.2135 0.84639 18.2268 1.09313 18.8508C1.30739 19.3928 1.76759 19.8037 2.33545 19.9601C2.98936 20.1401 3.97701 19.7016 5.95231 18.8246L18.6158 13.2016C20.5439 12.3454 21.5079 11.9175 21.8058 11.3228C22.0647 10.8062 22.0647 10.2 21.8058 9.68334C21.5079 9.0888 20.5439 8.66071 18.6158 7.8046L5.93047 2.172C3.96111 1.29756 2.97645 0.860341 2.32319 1.0397C1.75587 1.19546 1.29572 1.60524 1.08071 2.14618C0.833119 2.76906 1.17326 3.78026 1.85356 5.80265L3.13578 9.61454C3.25261 9.96186 3.31104 10.1356 3.3341 10.3131C3.35457 10.4708 3.35435 10.6304 3.33349 10.788C3.30996 10.9655 3.25109 11.139 3.13334 11.4861Z" stroke="#388E3C" stroke-width="2" stroke-linecap="round" stroke-linejoin="round"/>
</svg>
